<?xml version="1.0" encoding="utf-8"?>
<!-- Generator: Adobe Illustrator 16.0.0, SVG Export Plug-In . SVG Version: 6.00 Build 0)  -->
<!DOCTYPE svg PUBLIC "-//W3C//DTD SVG 1.1//EN" "http://www.w3.org/Graphics/SVG/1.1/DTD/svg11.dtd">
<svg version="1.1" id="Capa_1" xmlns="http://www.w3.org/2000/svg" xmlns:xlink="http://www.w3.org/1999/xlink" x="0px" y="0px"
	 width="595.279px" height="841.891px" viewBox="0 0 595.279 841.891" enable-background="new 0 0 595.279 841.891"
	 xml:space="preserve">
<g>
	<g>
		<path d="M297.515,123.305c-131.535,0-238.611,107.076-238.611,238.611c0,14.976,1.373,30.076,4.243,44.802
			c0.125,0.874,0.624,3.495,1.623,7.987c3.619,16.099,8.985,31.948,15.974,47.049c25.708,60.526,82.241,153.5,206.289,253.087
			c3.12,2.496,6.863,3.744,10.607,3.744s7.488-1.248,10.607-3.744c123.924-99.587,180.581-192.561,206.289-253.087
			c6.989-15.101,12.355-30.825,15.974-47.049c0.999-4.492,1.498-7.113,1.623-7.986c2.745-14.727,4.243-29.827,4.243-44.803
			C536.126,230.38,429.051,123.305,297.515,123.305z M498.688,400.853c0,0.25-0.125,0.499-0.125,0.749
			c-0.125,0.624-0.499,2.496-1.123,5.366c0,0.125,0,0.125,0,0.25c-3.12,13.977-7.737,27.58-13.853,40.684
			c-0.125,0.125-0.125,0.374-0.25,0.499C460,503.686,408.833,588.048,297.515,680.023C186.197,588.048,135.03,503.686,111.693,448.4
			c-0.124-0.125-0.124-0.374-0.249-0.499c-5.99-12.979-10.607-26.707-13.853-40.684c0-0.125,0-0.125,0-0.25
			c-0.749-2.87-0.998-4.742-1.123-5.366c0-0.25-0.125-0.499-0.125-0.874c-2.496-12.854-3.744-25.833-3.744-38.936
			c0-112.941,91.976-204.917,204.916-204.917c112.941,0,204.916,91.976,204.916,204.917
			C502.431,375.02,501.183,388.124,498.688,400.853z"/>
		<path d="M297.515,213.034c-83.488,0-151.503,68.014-151.503,151.503S214.027,516.04,297.515,516.04
			c83.489,0,151.503-68.014,151.503-151.503S381.004,213.034,297.515,213.034z M297.515,482.345
			c-65.019,0-117.808-52.913-117.808-117.808s52.914-117.808,117.808-117.808c64.895,0,117.809,52.914,117.809,117.808
			S362.534,482.345,297.515,482.345z"/>
	</g>
</g>
</svg>
