<?xml version="1.0" encoding="utf-8"?>
<!-- Generator: Adobe Illustrator 15.1.0, SVG Export Plug-In . SVG Version: 6.00 Build 0)  -->
<!DOCTYPE svg PUBLIC "-//W3C//DTD SVG 1.1//EN" "http://www.w3.org/Graphics/SVG/1.1/DTD/svg11.dtd">
<svg version="1.1" id="Capa_1" xmlns="http://www.w3.org/2000/svg" xmlns:xlink="http://www.w3.org/1999/xlink" x="0px" y="0px"
	 width="30.238px" height="30.238px" viewBox="0 0 30.238 30.238" enable-background="new 0 0 30.238 30.238" xml:space="preserve">
<path d="M30.238,28.008c0-0.601-0.234-1.165-0.659-1.589l-6.718-6.72c-0.306-0.307-0.695-0.516-1.127-0.607l-0.369-0.077l0.216-0.31
	c1.719-2.469,2.399-5.562,1.896-8.551l-2.333,2.291c-0.089,2.305-1.023,4.459-2.641,6.076c-1.713,1.713-3.994,2.655-6.423,2.655
	s-4.71-0.942-6.423-2.655c-3.54-3.541-3.54-9.304,0-12.846c1.713-1.712,3.994-2.655,6.423-2.655s4.71,0.943,6.423,2.655
	c0.479,0.478,0.911,1.029,1.288,1.638l0.104,0.17l-6.658,6.532l-5.303-5.08C7.453,8.471,6.631,8.489,6.167,8.972
	c-0.477,0.497-0.459,1.29,0.038,1.767l6.177,5.918c0.472,0.451,1.273,0.445,1.74-0.01L26.444,4.562
	c0.238-0.234,0.371-0.546,0.375-0.88s-0.123-0.649-0.357-0.887c-0.467-0.477-1.29-0.488-1.768-0.018L21.72,5.693L21.552,5.45
	c-0.409-0.587-0.828-1.091-1.281-1.543c-2.185-2.184-5.094-3.386-8.191-3.386c-3.097,0-6.006,1.202-8.189,3.386
	c-4.516,4.517-4.516,11.865,0,16.381c2.181,2.18,5.084,3.38,8.177,3.38c2.385,0,4.674-0.715,6.62-2.068l0.309-0.215l0.078,0.368
	c0.093,0.433,0.303,0.823,0.608,1.128l6.718,6.717c0.852,0.854,2.333,0.855,3.183,0C30.006,29.173,30.239,28.608,30.238,28.008z"/>
</svg>
